<svg width="28" height="32" viewBox="0 0 28 32" fill="none" xmlns="http://www.w3.org/2000/svg">
<path fill-rule="evenodd" clip-rule="evenodd" d="M9.06528 10.2899C9.23769 10.5056 9.20259 10.8202 8.98688 10.9926L2.92643 15.8365H21.3341C21.6102 15.8365 21.8341 16.0603 21.8341 16.3365C21.8341 16.6126 21.6102 16.8365 21.3341 16.8365H2.86029L8.99853 22.0538C9.20893 22.2326 9.23452 22.5482 9.05568 22.7586C8.87684 22.969 8.56129 22.9946 8.35089 22.8157L1.17618 16.7174C1.0624 16.6207 0.997803 16.4782 1.00006 16.3289C1.00231 16.1796 1.07118 16.0391 1.18783 15.9459L8.36254 10.2115C8.57825 10.0391 8.89288 10.0742 9.06528 10.2899ZM13.6965 2C13.3867 2 12.9887 2.21706 12.6425 2.81645C12.301 3.40786 12.0937 4.24341 12.0937 5.14083V8.78167C12.0937 9.05781 11.8698 9.28167 11.5937 9.28167C11.3175 9.28167 11.0937 9.05781 11.0937 8.78167V5.14083C11.0937 4.10704 11.3295 3.09047 11.7766 2.3163C12.2191 1.55011 12.8909 1 13.6965 1H24.6313C25.437 1 26.1087 1.55011 26.5512 2.3163C26.9984 3.09047 27.2342 4.10704 27.2342 5.14083V26.9858C27.2342 28.0196 26.9984 29.0362 26.5512 29.8104C26.1087 30.5766 25.437 31.1267 24.6313 31.1267H13.6965C12.8909 31.1267 12.2191 30.5766 11.7766 29.8104C11.3295 29.0362 11.0937 28.0196 11.0937 26.9858V23.345C11.0937 23.0689 11.3175 22.845 11.5937 22.845C11.8698 22.845 12.0937 23.0689 12.0937 23.345V26.9858C12.0937 27.8833 12.301 28.7188 12.6425 29.3102C12.9887 29.9096 13.3867 30.1267 13.6965 30.1267H24.6313C24.9411 30.1267 25.3391 29.9096 25.6853 29.3102C26.0269 28.7188 26.2342 27.8833 26.2342 26.9858V5.14083C26.2342 4.24341 26.0269 3.40786 25.6853 2.81645C25.3391 2.21706 24.9411 2 24.6313 2H13.6965Z" fill="#002A8D"/>
<path d="M8.98688 10.9926L9.29905 11.3832L9.29905 11.3832L8.98688 10.9926ZM9.06528 10.2899L9.45586 9.97772L9.06528 10.2899ZM2.92643 15.8365L2.61427 15.4459C2.44836 15.5785 2.38433 15.8014 2.45458 16.0018C2.52484 16.2023 2.71405 16.3365 2.92643 16.3365V15.8365ZM2.86029 16.8365V16.3365C2.65067 16.3365 2.46331 16.4672 2.39099 16.6639C2.31867 16.8607 2.37675 17.0817 2.53647 17.2174L2.86029 16.8365ZM8.99853 22.0538L9.32234 21.6728L9.32234 21.6728L8.99853 22.0538ZM9.05568 22.7586L8.67471 22.4348L8.67471 22.4348L9.05568 22.7586ZM8.35089 22.8157L8.02707 23.1967L8.02707 23.1967L8.35089 22.8157ZM1.17618 16.7174L1.5 16.3364L1.5 16.3364L1.17618 16.7174ZM1.00006 16.3289L1.5 16.3365L1.5 16.3365L1.00006 16.3289ZM1.18783 15.9459L0.875662 15.5553L0.875662 15.5553L1.18783 15.9459ZM8.36254 10.2115L8.67471 10.6021L8.67471 10.6021L8.36254 10.2115ZM12.6425 2.81645L12.2096 2.56638L12.2096 2.56638L12.6425 2.81645ZM11.7766 2.3163L12.2096 2.56638L12.2096 2.56638L11.7766 2.3163ZM26.5512 2.3163L26.1183 2.56638L26.1183 2.56638L26.5512 2.3163ZM26.5512 29.8104L26.1183 29.5603L26.1183 29.5603L26.5512 29.8104ZM11.7766 29.8104L11.3436 30.0604L11.3436 30.0604L11.7766 29.8104ZM12.6425 29.3102L13.0755 29.0601L13.0755 29.0601L12.6425 29.3102ZM25.6853 29.3102L25.2523 29.0601L25.2523 29.0601L25.6853 29.3102ZM25.6853 2.81645L25.2523 3.06652L25.2523 3.06652L25.6853 2.81645ZM9.29905 11.3832C9.73046 11.0384 9.80067 10.4091 9.45586 9.97772L8.67471 10.6021L8.67471 10.6021L9.29905 11.3832ZM3.2386 16.227L9.29905 11.3832L8.67471 10.6021L2.61427 15.4459L3.2386 16.227ZM21.3341 15.3365H2.92643V16.3365H21.3341V15.3365ZM22.3341 16.3365C22.3341 15.7842 21.8864 15.3365 21.3341 15.3365V16.3365H22.3341ZM21.3341 17.3365C21.8864 17.3365 22.3341 16.8887 22.3341 16.3365H21.3341V17.3365ZM2.86029 17.3365H21.3341V16.3365H2.86029V17.3365ZM9.32234 21.6728L3.18411 16.4555L2.53647 17.2174L8.67471 22.4348L9.32234 21.6728ZM9.43666 23.0824C9.79434 22.6616 9.74316 22.0305 9.32234 21.6728L8.67471 22.4348L8.67471 22.4348L9.43666 23.0824ZM8.02707 23.1967C8.44788 23.5544 9.07898 23.5032 9.43666 23.0824L8.67471 22.4348L8.67471 22.4348L8.02707 23.1967ZM0.852363 17.0984L8.02707 23.1967L8.67471 22.4348L1.5 16.3364L0.852363 17.0984ZM0.500114 16.3214C0.495605 16.62 0.624804 16.905 0.852363 17.0984L1.5 16.3364L1.5 16.3365L0.500114 16.3214ZM0.875662 15.5553C0.642367 15.7418 0.504623 16.0227 0.500114 16.3214L1.5 16.3365L1.5 16.3364L0.875662 15.5553ZM8.05037 9.82091L0.875662 15.5553L1.5 16.3364L8.67471 10.6021L8.05037 9.82091ZM9.45586 9.97772C9.11105 9.5463 8.48179 9.47609 8.05037 9.82091L8.67471 10.6021L8.67471 10.6021L9.45586 9.97772ZM13.0755 3.06652C13.3719 2.55329 13.6324 2.5 13.6965 2.5V1.5C13.1411 1.5 12.6055 1.88084 12.2096 2.56638L13.0755 3.06652ZM12.5937 5.14083C12.5937 4.31163 12.7867 3.56658 13.0755 3.06652L12.2096 2.56638C11.8152 3.24913 11.5937 4.17518 11.5937 5.14083H12.5937ZM12.5937 8.78167V5.14083H11.5937V8.78167H12.5937ZM11.5937 9.78167C12.1459 9.78167 12.5937 9.33395 12.5937 8.78167H11.5937V9.78167ZM10.5937 8.78167C10.5937 9.33395 11.0414 9.78167 11.5937 9.78167V8.78167H10.5937ZM10.5937 5.14083V8.78167H11.5937V5.14083H10.5937ZM11.3436 2.06623C10.8437 2.93181 10.5937 4.0389 10.5937 5.14083H11.5937C11.5937 4.17519 11.8152 3.24914 12.2096 2.56638L11.3436 2.06623ZM13.6965 0.5C12.6417 0.5 11.8334 1.21817 11.3436 2.06623L12.2096 2.56638C12.6048 1.88205 13.1401 1.5 13.6965 1.5V0.5ZM24.6313 0.5H13.6965V1.5H24.6313V0.5ZM26.9842 2.06623C26.4944 1.21817 25.6861 0.5 24.6313 0.5V1.5C25.1878 1.5 25.723 1.88205 26.1183 2.56638L26.9842 2.06623ZM27.7342 5.14083C27.7342 4.0389 27.4841 2.93181 26.9842 2.06623L26.1183 2.56638C26.5126 3.24914 26.7342 4.17519 26.7342 5.14083H27.7342ZM27.7342 26.9858V5.14083H26.7342V26.9858H27.7342ZM26.9842 30.0604C27.4841 29.1949 27.7342 28.0878 27.7342 26.9858H26.7342C26.7342 27.9515 26.5126 28.8775 26.1183 29.5603L26.9842 30.0604ZM24.6313 31.6267C25.6861 31.6267 26.4944 30.9085 26.9842 30.0604L26.1183 29.5603C25.723 30.2446 25.1878 30.6267 24.6313 30.6267V31.6267ZM13.6965 31.6267H24.6313V30.6267H13.6965V31.6267ZM11.3436 30.0604C11.8334 30.9085 12.6417 31.6267 13.6965 31.6267V30.6267C13.1401 30.6267 12.6048 30.2446 12.2096 29.5603L11.3436 30.0604ZM10.5937 26.9858C10.5937 28.0878 10.8437 29.1949 11.3436 30.0604L12.2096 29.5603C11.8152 28.8775 11.5937 27.9515 11.5937 26.9858H10.5937ZM10.5937 23.345V26.9858H11.5937V23.345H10.5937ZM11.5937 22.345C11.0414 22.345 10.5937 22.7927 10.5937 23.345H11.5937V22.345ZM12.5937 23.345C12.5937 22.7927 12.1459 22.345 11.5937 22.345V23.345H12.5937ZM12.5937 26.9858V23.345H11.5937V26.9858H12.5937ZM13.0755 29.0601C12.7867 28.5601 12.5937 27.815 12.5937 26.9858H11.5937C11.5937 27.9515 11.8152 28.8775 12.2096 29.5603L13.0755 29.0601ZM13.6965 29.6267C13.6324 29.6267 13.3719 29.5734 13.0755 29.0601L12.2096 29.5603C12.6055 30.2458 13.1411 30.6267 13.6965 30.6267V29.6267ZM24.6313 29.6267H13.6965V30.6267H24.6313V29.6267ZM25.2523 29.0601C24.9559 29.5734 24.6954 29.6267 24.6313 29.6267V30.6267C25.1868 30.6267 25.7223 30.2458 26.1183 29.5603L25.2523 29.0601ZM25.7342 26.9858C25.7342 27.815 25.5411 28.5601 25.2523 29.0601L26.1183 29.5603C26.5126 28.8775 26.7342 27.9515 26.7342 26.9858H25.7342ZM25.7342 5.14083V26.9858H26.7342V5.14083H25.7342ZM25.2523 3.06652C25.5411 3.56658 25.7342 4.31163 25.7342 5.14083H26.7342C26.7342 4.17518 26.5126 3.24913 26.1183 2.56638L25.2523 3.06652ZM24.6313 2.5C24.6954 2.5 24.9559 2.55329 25.2523 3.06652L26.1183 2.56638C25.7223 1.88084 25.1868 1.5 24.6313 1.5V2.5ZM13.6965 2.5H24.6313V1.5H13.6965V2.5Z" fill="#002A8D"/>
</svg>
