<svg width="15" height="15" viewBox="0 0 15 15" fill="none" xmlns="http://www.w3.org/2000/svg">
<path d="M7.5 2.34375C6.48019 2.34375 5.48328 2.64616 4.63534 3.21273C3.7874 3.77931 3.12651 4.58461 2.73625 5.52679C2.34598 6.46897 2.24387 7.50572 2.44283 8.50593C2.64178 9.50615 3.13287 10.4249 3.85398 11.146C4.5751 11.8671 5.49385 12.3582 6.49407 12.5572C7.49428 12.7561 8.53103 12.654 9.47321 12.2638C10.4154 11.8735 11.2207 11.2126 11.7873 10.3647C12.3538 9.51672 12.6563 8.51981 12.6563 7.5C12.6563 6.13248 12.113 4.82097 11.146 3.85398C10.179 2.887 8.86753 2.34375 7.5 2.34375Z" stroke="#002A8D" stroke-miterlimit="10"/>
<path d="M6.79688 4.6875C6.37968 4.6875 5.97186 4.81121 5.62497 5.04299C5.27809 5.27477 5.00772 5.60421 4.84807 5.98965C4.68841 6.37509 4.64664 6.79922 4.72803 7.20839C4.80942 7.61757 5.01032 7.99343 5.30532 8.28843C5.60032 8.58343 5.97618 8.78433 6.38536 8.86572C6.79454 8.94711 7.21866 8.90534 7.6041 8.74568C7.98954 8.58603 8.31898 8.31567 8.55076 7.96878C8.78254 7.6219 8.90625 7.21407 8.90625 6.79688C8.90625 6.51987 8.85169 6.24557 8.74568 5.98965C8.63968 5.73373 8.4843 5.5012 8.28843 5.30532C8.09256 5.10945 7.86002 4.95407 7.6041 4.84807C7.34818 4.74206 7.07388 4.6875 6.79688 4.6875Z" stroke="#002A8D" stroke-miterlimit="10"/>
<path d="M8.30981 8.30981L9.8438 9.8438" stroke="#002A8D" stroke-miterlimit="10" stroke-linecap="round"/>
</svg>
