<svg width="25" height="25" viewBox="0 0 25 25" fill="none" xmlns="http://www.w3.org/2000/svg">
<path d="M9.375 7.12891C9.375 7.12891 8.18554 6.54297 12.5 6.54297C14.0452 6.54297 15.5556 7.00116 16.8404 7.85961C18.1251 8.71806 19.1265 9.93821 19.7178 11.3658C20.3091 12.7933 20.4638 14.3641 20.1624 15.8796C19.8609 17.3951 19.1169 18.7871 18.0243 19.8797C16.9317 20.9723 15.5396 21.7164 14.0241 22.0179C12.5087 22.3193 10.9378 22.1646 9.51028 21.5733C8.08273 20.982 6.86259 19.9806 6.00414 18.6959C5.14569 17.4111 4.6875 15.9006 4.6875 14.3555" stroke="#002A8D" stroke-width="1.2" stroke-miterlimit="10" stroke-linecap="round"/>
<path d="M12.5 2.83203L8.59375 6.73828L12.5 10.6445" stroke="#002A8D" stroke-width="1.2" stroke-linecap="round" stroke-linejoin="round"/>
</svg>
